<svg width="36" height="36" viewBox="0 0 36 36" fill="none" xmlns="http://www.w3.org/2000/svg">
<circle cx="18" cy="18" r="18" fill="#7070FF"/>
<path d="M11.652 20.464V15.028H12.984C14.376 15.028 15.528 15.904 15.528 17.752C15.528 19.6 14.364 20.464 12.972 20.464H11.652ZM13.032 22C15.456 22 17.244 20.44 17.244 17.752C17.244 15.064 15.468 13.492 13.044 13.492H9.996V22H13.032ZM19.9736 17.74C19.9736 15.82 21.3176 14.908 22.6256 14.908C23.9456 14.908 25.2896 15.82 25.2896 17.74C25.2896 19.66 23.9456 20.572 22.6256 20.572C21.3176 20.572 19.9736 19.66 19.9736 17.74ZM18.2576 17.752C18.2576 20.488 20.3216 22.18 22.6256 22.18C24.9416 22.18 27.0056 20.488 27.0056 17.752C27.0056 15.004 24.9416 13.312 22.6256 13.312C20.3216 13.312 18.2576 15.004 18.2576 17.752Z" fill="white"/>
</svg>
